<?xml version="1.0" encoding="UTF-8"?>
<svg width="186px" height="204px" viewBox="0 0 186 204" version="1.1" xmlns="http://www.w3.org/2000/svg" xmlns:xlink="http://www.w3.org/1999/xlink">
    <!-- Generator: Sketch 44.1 (41455) - http://www.bohemiancoding.com/sketch -->
    <title>Pacman</title>
    <desc>Created with Sketch.</desc>
    <defs></defs>
    <g id="Page-1" stroke="none" stroke-width="1" fill="none" fill-rule="evenodd">
        <g id="iPad" transform="translate(0.000000, -1023.000000)">
            <g id="Pacman" transform="translate(94.000000, 1131.500000) scale(-1, -1) translate(-94.000000, -1131.500000) translate(-13.000000, 1021.000000)">
                <path d="M84,34.0094082 C78.1547974,22.1551616 65.948778,14 51.8380185,14 C32.0452274,14 16,30.0452274 16,49.8380185 C16,69.6308096 32.0452274,85.676037 51.8380185,85.676037 C65.948778,85.676037 78.1547974,77.5208754 84,65.6666288 L52.3427793,49.8380185 L84,34.0094082 Z" id="Combined-Shape" fill="#C8FF16" transform="translate(50.000000, 49.838019) rotate(44.000000) translate(-50.000000, -49.838019) "></path>
                <path d="M108.952576,107.993916 C111.682864,106.40536 114.880114,105.543409 118.271029,105.662938 C121.58117,105.77962 124.642585,106.816308 127.218049,108.518585 L117.423791,126.518662 L108.952576,107.993916 L108.952576,107.993916 Z" id="Combined-Shape" fill="#BD10E0" transform="translate(118.085312, 116.085312) rotate(-135.000000) translate(-118.085312, -116.085312) "></path>
                <path d="M136.202576,138.243916 C138.932864,136.65536 142.130114,135.793409 145.521029,135.912938 C148.83117,136.02962 151.892585,137.066308 154.468049,138.768585 L144.673791,156.768662 L136.202576,138.243916 L136.202576,138.243916 Z" id="Combined-Shape" fill="#BD10E0" transform="translate(145.335312, 146.335312) rotate(-135.000000) translate(-145.335312, -146.335312) "></path>
                <path d="M190.702576,198.743916 C193.432864,197.15536 196.630114,196.293409 200.021029,196.412938 C203.33117,196.52962 206.392585,197.566308 208.968049,199.268585 L199.173791,217.268662 L190.702576,198.743916 L190.702576,198.743916 Z" id="Combined-Shape" fill="#BD10E0" transform="translate(199.835312, 206.835312) rotate(-135.000000) translate(-199.835312, -206.835312) "></path>
                <path d="M163.452576,168.493916 C166.182864,166.90536 169.380114,166.043409 172.771029,166.162938 C176.08117,166.27962 179.142585,167.316308 181.718049,169.018585 L171.923791,187.018662 L163.452576,168.493916 L163.452576,168.493916 Z" id="Combined-Shape" fill="#BD10E0" transform="translate(172.585312, 176.585312) rotate(-135.000000) translate(-172.585312, -176.585312) "></path>
                <path d="M81.7025761,77.7439159 C84.432864,76.1553603 87.6301137,75.2934088 91.0210287,75.4129381 C94.3311701,75.5296201 97.3925852,76.566308 99.9680486,78.2685849 L90.1737909,96.2686624 L81.7025761,77.7439159 L81.7025761,77.7439159 Z" id="Combined-Shape" fill="#BD10E0" transform="translate(90.835312, 85.835312) rotate(-135.000000) translate(-90.835312, -85.835312) "></path>
            </g>
        </g>
    </g>
</svg>