<?xml version="1.0" encoding="UTF-8"?>
<svg width="437px" height="357px" viewBox="0 0 437 357" version="1.1" xmlns="http://www.w3.org/2000/svg" xmlns:xlink="http://www.w3.org/1999/xlink">
    <!-- Generator: Sketch 44.1 (41455) - http://www.bohemiancoding.com/sketch -->
    <title>bg-eating</title>
    <desc>Created with Sketch.</desc>
    <defs></defs>
    <g id="Page-1" stroke="none" stroke-width="1" fill="none" fill-rule="evenodd">
        <g id="iPad" transform="translate(-331.000000, -398.000000)">
            <g id="bg-eating" transform="translate(325.000000, 397.000000)">
                <g id="Pizza-Parade" transform="translate(0.000000, 101.000000)">
                    <path d="M3.80689013,236.710112 C5.37616671,226.582549 9.73091807,216.761159 16.9557758,208.455426 C24.0085331,200.34754 32.8731323,194.745231 42.4237308,191.727173 L67.811111,253.174291 L3.80689013,236.710112 Z" id="Combined-Shape" fill="#BD0FE1" transform="translate(35.809001, 222.450732) rotate(-81.000000) translate(-35.809001, -222.450732) "></path>
                    <path d="M74.8206128,187.563557 C75.6378496,182.289396 77.9056866,177.174681 81.6681974,172.84928 C85.341083,168.626912 89.9575269,165.709381 94.9312208,164.137657 L108.152283,196.137657 L74.8206128,187.563557 Z" id="Combined-Shape" fill="#C8FF16" transform="translate(91.486448, 180.137657) rotate(-81.000000) translate(-91.486448, -180.137657) "></path>
                    <path d="M115.641226,160.701215 C116.458462,155.427054 118.726299,150.312339 122.48881,145.986937 C126.161696,141.764569 130.77814,138.847038 135.751834,137.275315 L148.972896,169.275315 L115.641226,160.701215 Z" id="Combined-Shape" fill="#C8FF16" transform="translate(132.307061, 153.275315) rotate(-81.000000) translate(-132.307061, -153.275315) "></path>
                    <path d="M156.461838,133.838872 C157.279075,128.564711 159.546912,123.449996 163.309423,119.124595 C166.982309,114.902227 171.598752,111.984696 176.572446,110.412972 L189.793508,142.412972 L156.461838,133.838872 Z" id="Combined-Shape" fill="#C8FF16" transform="translate(173.127673, 126.412972) rotate(-81.000000) translate(-173.127673, -126.412972) "></path>
                    <path d="M197.282451,106.97653 C198.099688,101.702369 200.367525,96.5876537 204.130036,92.2622522 C207.802921,88.0398843 212.419365,85.1223531 217.393059,83.55063 L230.614121,115.55063 L197.282451,106.97653 Z" id="Combined-Shape" fill="#C8FF16" transform="translate(213.948286, 99.550630) rotate(-81.000000) translate(-213.948286, -99.550630) "></path>
                    <path d="M238.103064,80.1141873 C238.920301,74.840026 241.188138,69.7253112 244.950648,65.3999097 C248.623534,61.1775418 253.239978,58.2600106 258.213672,56.6882875 L271.434734,88.6882875 L238.103064,80.1141873 Z" id="Combined-Shape" fill="#C8FF16" transform="translate(254.768899, 72.688287) rotate(-81.000000) translate(-254.768899, -72.688287) "></path>
                    <path d="M278.923677,53.2518448 C279.740913,47.9776835 282.00875,42.8629687 285.771261,38.5375672 C289.444147,34.3151993 294.060591,31.3976681 299.034285,29.825945 L312.255347,61.825945 L278.923677,53.2518448 Z" id="Combined-Shape" fill="#C8FF16" transform="translate(295.589512, 45.825945) rotate(-81.000000) translate(-295.589512, -45.825945) "></path>
                    <path d="M319.744289,26.3895023 C320.561526,21.115341 322.829363,16.0006262 326.591874,11.6752247 C330.26476,7.45285681 334.881203,4.53532557 339.854897,2.96360245 L353.07596,34.9636025 L319.744289,26.3895023 Z" id="Combined-Shape" fill="#C8FF16" transform="translate(336.410124, 18.963602) rotate(-81.000000) translate(-336.410124, -18.963602) "></path>
                </g>
                <g id="Head" transform="translate(361.000000, 0.000000)">
                    <g id="Mouth" transform="translate(0.000000, 39.000000)">
                        <polygon id="inside-mouth" fill="#000000" points="0.206826428 27.2303896 151.939314 27.2303896 151.939314 72.4200679 0.206826428 72.4200679"></polygon>
                        <path d="M8.20682643,0.527397964 L143.939314,0.527397964 C148.357592,0.527397964 151.939314,4.10911997 151.939314,8.52739796 L151.939314,21.2844659 C151.939314,25.7027439 148.357592,29.2844659 143.939314,29.2844659 L8.20682643,29.2844659 C3.78854843,29.2844659 0.206826428,25.7027439 0.206826428,21.2844659 L0.206826428,8.52739796 C0.206826428,4.10911997 3.78854843,0.527397964 8.20682643,0.527397964 Z M8.20682643,69.3389534 L143.939314,69.3389534 C148.357592,69.3389534 151.939314,72.9206754 151.939314,77.3389534 L151.939314,80.8526781 C151.939314,85.2709561 148.357592,88.8526781 143.939314,88.8526781 L8.20682643,88.8526781 C3.78854843,88.8526781 0.206826428,85.2709561 0.206826428,80.8526781 L0.206826428,77.3389534 C0.206826428,72.9206754 3.78854843,69.3389534 8.20682643,69.3389534 Z" id="Combined-Shape" fill="#FFFFFF"></path>
                        <path d="M8.20682643,5.02739796 C6.2738298,5.02739796 4.70682643,6.59440134 4.70682643,8.52739796 L4.70682643,80.8526781 C4.70682643,82.7856747 6.2738298,84.3526781 8.20682643,84.3526781 L143.939314,84.3526781 C145.872311,84.3526781 147.439314,82.7856747 147.439314,80.8526781 L147.439314,8.52739796 C147.439314,6.59440134 145.872311,5.02739796 143.939314,5.02739796 L8.20682643,5.02739796 Z" id="Lips" stroke="#FF239D" stroke-width="9"></path>
                    </g>
                    <path d="M24.5005845,19.5975107 L37.997557,10.9743876 L11.2961207,0.963694732 C9.44912478,4.84243097 8.61344232,9.2619179 9.09372334,13.8459796 C9.5857241,18.5419009 11.3927248,22.7808637 14.1105694,26.23562 L14.9982224,25.6685046 C14.6119865,24.6860975 14.3505516,23.6357141 14.2351829,22.534573 C13.9974357,20.2653852 14.4111126,18.0776648 15.3254067,16.1576251 L24.5005845,19.5975107 Z" id="Eye" fill="#000000"></path>
                    <path d="M62.5005845,19.5975107 L75.997557,10.9743876 L49.2961207,0.963694732 C47.4491248,4.84243097 46.6134423,9.2619179 47.0937233,13.8459796 C47.5857241,18.5419009 49.3927248,22.7808637 52.1105694,26.23562 L52.9982224,25.6685046 C52.6119865,24.6860975 52.3505516,23.6357141 52.2351829,22.534573 C51.9974357,20.2653852 52.4111126,18.0776648 53.3254067,16.1576251 L62.5005845,19.5975107 Z" id="Eye" fill="#000000"></path>
                </g>
            </g>
        </g>
    </g>
</svg>