<?xml version="1.0" encoding="UTF-8"?>
<svg width="446px" height="271px" viewBox="0 0 446 271" version="1.1" xmlns="http://www.w3.org/2000/svg" xmlns:xlink="http://www.w3.org/1999/xlink">
    <!-- Generator: Sketch 44.1 (41455) - http://www.bohemiancoding.com/sketch -->
    <title>Space Invader</title>
    <desc>Created with Sketch.</desc>
    <defs></defs>
    <g id="Page-1" stroke="none" stroke-width="1" fill="none" fill-rule="evenodd">
        <g id="iPad" transform="translate(-204.000000, -1333.000000)">
            <g id="Space-Invaders" transform="translate(190.000000, 1319.000000)">
                <g id="Head" transform="translate(219.407639, 250.280270) rotate(90.000000) translate(-219.407639, -250.280270) translate(165.584965, 47.077958)">
                    <g id="Mouth" transform="translate(0.000000, -0.000000)">
                        <rect id="inside-mouth" fill="#000000" x="0.146473046" y="60.867052" width="107.455898" height="313.699422"></rect>
                        <rect id="Rectangle-2" fill="#FFFFFF" x="0.146473046" y="0.545336521" width="107.455898" height="60.3217155" rx="8"></rect>
                        <rect id="Rectangle-2" fill="#FFFFFF" x="0.146473046" y="374.566474" width="107.455898" height="30.9585157" rx="8"></rect>
                        <rect id="Lips" stroke="#FF239D" stroke-width="9" x="4.64647305" y="5.04533652" width="98.4558984" height="395.979653" rx="8"></rect>
                    </g>
                </g>
                <g id="Group" transform="translate(14.976744, 14.046243)">
                    <path d="M88.9244186,39.3294798 C88.9244186,41.9153217 86.8290071,44.0115607 84.244186,44.0115607 C81.659365,44.0115607 79.5639535,41.9153217 79.5639535,39.3294798 L79.5639535,31.8381503 L71.1395349,31.8381503 L71.1395349,39.3294798 C71.1395349,40.6224007 70.615682,41.7929209 69.7687265,42.6402109 C68.921771,43.4875009 67.7517129,44.0115607 66.4593023,44.0115607 L59.9069767,44.0115607 C57.3221557,44.0115607 55.2267442,41.9153217 55.2267442,39.3294798 C55.2267442,36.7436379 57.3221557,34.6473988 59.9069767,34.6473988 L61.7790698,34.6473988 L61.7790698,31.8381503 L28.0813953,31.8381503 L28.0813953,34.6473988 L29.9534884,34.6473988 C32.5383094,34.6473988 34.6337209,36.7436379 34.6337209,39.3294798 C34.6337209,41.9153217 32.5383094,44.0115607 29.9534884,44.0115607 L23.4011628,44.0115607 C22.1087523,44.0115607 20.9386941,43.4875009 20.0917386,42.6402109 C19.2447831,41.7929209 18.7209302,40.6224007 18.7209302,39.3294798 L18.7209302,31.8381503 L9.36046512,31.8381503 L9.36046512,39.3294798 C9.36046512,41.9153217 7.26505363,44.0115607 4.68023256,44.0115607 C2.09541149,44.0115607 0,41.9153217 0,39.3294798 L0,25.283237 C0,22.1802267 2.51449379,19.6647399 5.61627907,19.6647399 L14.0406977,19.6647399 L14.0406977,7.49132948 C14.0406977,3.35398245 17.3933561,0 21.5290698,0 L66.4593023,0 C70.595016,-3.32681859e-15 73.9476744,3.35398245 73.9476744,7.49132948 L73.9476744,19.6647399 L83.3081395,19.6647399 C86.4099248,19.6647399 88.9244186,22.1802267 88.9244186,25.283237 L88.9244186,39.3294798 Z M59.061878,15.9959428 C59.5477934,14.4248076 59.610577,12.7018812 59.1529757,10.995659 C58.7062748,9.33007996 57.8221556,7.89843175 56.6574067,6.79126225 L48.6761694,13.8680905 L59.061878,15.9959428 Z M31.1462051,16.3157829 L31.1462051,16.3157829 L41.3070116,13.2904961 L32.7396026,6.93648264 C31.675744,8.14099368 30.9197163,9.64428053 30.6198226,11.3424694 C30.3126111,13.0820973 30.5252593,14.7929933 31.1462051,16.3157829 Z" id="Combined-Shape" fill="#BD0FE1"></path>
                    <path d="M35.5170947,52.1821402 C38.0727712,50.6945911 41.0655456,49.8874457 44.2395997,49.9993749 C47.338046,50.1086378 50.203673,51.0794091 52.6144265,52.6734488 L43.4465458,69.5290127 L35.5170947,52.1821402 L35.5170947,52.1821402 Z M35.5170947,83.0838743 C38.0727712,81.5963252 41.0655456,80.7891798 44.2395997,80.901109 C47.338046,81.0103719 50.203673,81.9811432 52.6144265,83.5751829 L43.4465458,100.430747 L35.5170947,83.0838743 L35.5170947,83.0838743 Z M35.5170947,113.985608 C38.0727712,112.498059 41.0655456,111.690914 44.2395997,111.802843 C47.338046,111.912106 50.203673,112.882877 52.6144265,114.476917 L43.4465458,131.332481 L35.5170947,113.985608 L35.5170947,113.985608 Z M35.5170947,144.887342 C38.0727712,143.399793 41.0655456,142.592648 44.2395997,142.704577 C47.338046,142.81384 50.203673,143.784611 52.6144265,145.378651 L43.4465458,162.234215 L35.5170947,144.887342 L35.5170947,144.887342 Z M35.5170947,175.789077 C38.0727712,174.301527 41.0655456,173.494382 44.2395997,173.606311 C47.338046,173.715574 50.203673,174.686346 52.6144265,176.280385 L43.4465458,193.135949 L35.5170947,175.789077 L35.5170947,175.789077 Z M35.5170947,206.690811 C38.0727712,205.203262 41.0655456,204.396116 44.2395997,204.508045 C47.338046,204.617308 50.203673,205.58808 52.6144265,207.182119 L43.4465458,224.037683 L35.5170947,206.690811 L35.5170947,206.690811 Z" id="Combined-Shape" fill="#C8FF16"></path>
                </g>
                <g id="Group" transform="translate(113.261628, 14.046243)">
                    <path d="M88.9244186,39.3294798 C88.9244186,41.9153217 86.8290071,44.0115607 84.244186,44.0115607 C81.659365,44.0115607 79.5639535,41.9153217 79.5639535,39.3294798 L79.5639535,31.8381503 L71.1395349,31.8381503 L71.1395349,39.3294798 C71.1395349,40.6224007 70.615682,41.7929209 69.7687265,42.6402109 C68.921771,43.4875009 67.7517129,44.0115607 66.4593023,44.0115607 L59.9069767,44.0115607 C57.3221557,44.0115607 55.2267442,41.9153217 55.2267442,39.3294798 C55.2267442,36.7436379 57.3221557,34.6473988 59.9069767,34.6473988 L61.7790698,34.6473988 L61.7790698,31.8381503 L28.0813953,31.8381503 L28.0813953,34.6473988 L29.9534884,34.6473988 C32.5383094,34.6473988 34.6337209,36.7436379 34.6337209,39.3294798 C34.6337209,41.9153217 32.5383094,44.0115607 29.9534884,44.0115607 L23.4011628,44.0115607 C22.1087523,44.0115607 20.9386941,43.4875009 20.0917386,42.6402109 C19.2447831,41.7929209 18.7209302,40.6224007 18.7209302,39.3294798 L18.7209302,31.8381503 L9.36046512,31.8381503 L9.36046512,39.3294798 C9.36046512,41.9153217 7.26505363,44.0115607 4.68023256,44.0115607 C2.09541149,44.0115607 0,41.9153217 0,39.3294798 L0,25.283237 C0,22.1802267 2.51449379,19.6647399 5.61627907,19.6647399 L14.0406977,19.6647399 L14.0406977,7.49132948 C14.0406977,3.35398245 17.3933561,0 21.5290698,0 L66.4593023,0 C70.595016,-3.32681859e-15 73.9476744,3.35398245 73.9476744,7.49132948 L73.9476744,19.6647399 L83.3081395,19.6647399 C86.4099248,19.6647399 88.9244186,22.1802267 88.9244186,25.283237 L88.9244186,39.3294798 Z M59.061878,15.9959428 C59.5477934,14.4248076 59.610577,12.7018812 59.1529757,10.995659 C58.7062748,9.33007996 57.8221556,7.89843175 56.6574067,6.79126225 L48.6761694,13.8680905 L59.061878,15.9959428 Z M31.1462051,16.3157829 L31.1462051,16.3157829 L41.3070116,13.2904961 L32.7396026,6.93648264 C31.675744,8.14099368 30.9197163,9.64428053 30.6198226,11.3424694 C30.3126111,13.0820973 30.5252593,14.7929933 31.1462051,16.3157829 Z" id="Combined-Shape" fill="#BD0FE1"></path>
                    <path d="M35.5170947,52.1821402 C38.0727712,50.6945911 41.0655456,49.8874457 44.2395997,49.9993749 C47.338046,50.1086378 50.203673,51.0794091 52.6144265,52.6734488 L43.4465458,69.5290127 L35.5170947,52.1821402 L35.5170947,52.1821402 Z M35.5170947,83.0838743 C38.0727712,81.5963252 41.0655456,80.7891798 44.2395997,80.901109 C47.338046,81.0103719 50.203673,81.9811432 52.6144265,83.5751829 L43.4465458,100.430747 L35.5170947,83.0838743 L35.5170947,83.0838743 Z M35.5170947,113.985608 C38.0727712,112.498059 41.0655456,111.690914 44.2395997,111.802843 C47.338046,111.912106 50.203673,112.882877 52.6144265,114.476917 L43.4465458,131.332481 L35.5170947,113.985608 L35.5170947,113.985608 Z M35.5170947,144.887342 C38.0727712,143.399793 41.0655456,142.592648 44.2395997,142.704577 C47.338046,142.81384 50.203673,143.784611 52.6144265,145.378651 L43.4465458,162.234215 L35.5170947,144.887342 L35.5170947,144.887342 Z M35.5170947,175.789077 C38.0727712,174.301527 41.0655456,173.494382 44.2395997,173.606311 C47.338046,173.715574 50.203673,174.686346 52.6144265,176.280385 L43.4465458,193.135949 L35.5170947,175.789077 L35.5170947,175.789077 Z M35.5170947,206.690811 C38.0727712,205.203262 41.0655456,204.396116 44.2395997,204.508045 C47.338046,204.617308 50.203673,205.58808 52.6144265,207.182119 L43.4465458,224.037683 L35.5170947,206.690811 L35.5170947,206.690811 Z" id="Combined-Shape" fill="#C8FF16"></path>
                </g>
                <g id="Group" transform="translate(208.738372, 14.046243)">
                    <path d="M88.9244186,39.3294798 C88.9244186,41.9153217 86.8290071,44.0115607 84.244186,44.0115607 C81.659365,44.0115607 79.5639535,41.9153217 79.5639535,39.3294798 L79.5639535,31.8381503 L71.1395349,31.8381503 L71.1395349,39.3294798 C71.1395349,40.6224007 70.615682,41.7929209 69.7687265,42.6402109 C68.921771,43.4875009 67.7517129,44.0115607 66.4593023,44.0115607 L59.9069767,44.0115607 C57.3221557,44.0115607 55.2267442,41.9153217 55.2267442,39.3294798 C55.2267442,36.7436379 57.3221557,34.6473988 59.9069767,34.6473988 L61.7790698,34.6473988 L61.7790698,31.8381503 L28.0813953,31.8381503 L28.0813953,34.6473988 L29.9534884,34.6473988 C32.5383094,34.6473988 34.6337209,36.7436379 34.6337209,39.3294798 C34.6337209,41.9153217 32.5383094,44.0115607 29.9534884,44.0115607 L23.4011628,44.0115607 C22.1087523,44.0115607 20.9386941,43.4875009 20.0917386,42.6402109 C19.2447831,41.7929209 18.7209302,40.6224007 18.7209302,39.3294798 L18.7209302,31.8381503 L9.36046512,31.8381503 L9.36046512,39.3294798 C9.36046512,41.9153217 7.26505363,44.0115607 4.68023256,44.0115607 C2.09541149,44.0115607 0,41.9153217 0,39.3294798 L0,25.283237 C0,22.1802267 2.51449379,19.6647399 5.61627907,19.6647399 L14.0406977,19.6647399 L14.0406977,7.49132948 C14.0406977,3.35398245 17.3933561,0 21.5290698,0 L66.4593023,0 C70.595016,-3.32681859e-15 73.9476744,3.35398245 73.9476744,7.49132948 L73.9476744,19.6647399 L83.3081395,19.6647399 C86.4099248,19.6647399 88.9244186,22.1802267 88.9244186,25.283237 L88.9244186,39.3294798 Z M59.061878,15.9959428 C59.5477934,14.4248076 59.610577,12.7018812 59.1529757,10.995659 C58.7062748,9.33007996 57.8221556,7.89843175 56.6574067,6.79126225 L48.6761694,13.8680905 L59.061878,15.9959428 Z M31.1462051,16.3157829 L31.1462051,16.3157829 L41.3070116,13.2904961 L32.7396026,6.93648264 C31.675744,8.14099368 30.9197163,9.64428053 30.6198226,11.3424694 C30.3126111,13.0820973 30.5252593,14.7929933 31.1462051,16.3157829 Z" id="Combined-Shape" fill="#BD0FE1"></path>
                    <path d="M35.5170947,52.1821402 C38.0727712,50.6945911 41.0655456,49.8874457 44.2395997,49.9993749 C47.338046,50.1086378 50.203673,51.0794091 52.6144265,52.6734488 L43.4465458,69.5290127 L35.5170947,52.1821402 L35.5170947,52.1821402 Z M35.5170947,83.0838743 C38.0727712,81.5963252 41.0655456,80.7891798 44.2395997,80.901109 C47.338046,81.0103719 50.203673,81.9811432 52.6144265,83.5751829 L43.4465458,100.430747 L35.5170947,83.0838743 L35.5170947,83.0838743 Z M35.5170947,113.985608 C38.0727712,112.498059 41.0655456,111.690914 44.2395997,111.802843 C47.338046,111.912106 50.203673,112.882877 52.6144265,114.476917 L43.4465458,131.332481 L35.5170947,113.985608 L35.5170947,113.985608 Z M35.5170947,144.887342 C38.0727712,143.399793 41.0655456,142.592648 44.2395997,142.704577 C47.338046,142.81384 50.203673,143.784611 52.6144265,145.378651 L43.4465458,162.234215 L35.5170947,144.887342 L35.5170947,144.887342 Z M35.5170947,175.789077 C38.0727712,174.301527 41.0655456,173.494382 44.2395997,173.606311 C47.338046,173.715574 50.203673,174.686346 52.6144265,176.280385 L43.4465458,193.135949 L35.5170947,175.789077 L35.5170947,175.789077 Z M35.5170947,206.690811 C38.0727712,205.203262 41.0655456,204.396116 44.2395997,204.508045 C47.338046,204.617308 50.203673,205.58808 52.6144265,207.182119 L43.4465458,224.037683 L35.5170947,206.690811 L35.5170947,206.690811 Z" id="Combined-Shape" fill="#C8FF16"></path>
                </g>
                <g id="Group" transform="translate(304.215116, 14.046243)">
                    <path d="M88.9244186,39.3294798 C88.9244186,41.9153217 86.8290071,44.0115607 84.244186,44.0115607 C81.659365,44.0115607 79.5639535,41.9153217 79.5639535,39.3294798 L79.5639535,31.8381503 L71.1395349,31.8381503 L71.1395349,39.3294798 C71.1395349,40.6224007 70.615682,41.7929209 69.7687265,42.6402109 C68.921771,43.4875009 67.7517129,44.0115607 66.4593023,44.0115607 L59.9069767,44.0115607 C57.3221557,44.0115607 55.2267442,41.9153217 55.2267442,39.3294798 C55.2267442,36.7436379 57.3221557,34.6473988 59.9069767,34.6473988 L61.7790698,34.6473988 L61.7790698,31.8381503 L28.0813953,31.8381503 L28.0813953,34.6473988 L29.9534884,34.6473988 C32.5383094,34.6473988 34.6337209,36.7436379 34.6337209,39.3294798 C34.6337209,41.9153217 32.5383094,44.0115607 29.9534884,44.0115607 L23.4011628,44.0115607 C22.1087523,44.0115607 20.9386941,43.4875009 20.0917386,42.6402109 C19.2447831,41.7929209 18.7209302,40.6224007 18.7209302,39.3294798 L18.7209302,31.8381503 L9.36046512,31.8381503 L9.36046512,39.3294798 C9.36046512,41.9153217 7.26505363,44.0115607 4.68023256,44.0115607 C2.09541149,44.0115607 0,41.9153217 0,39.3294798 L0,25.283237 C0,22.1802267 2.51449379,19.6647399 5.61627907,19.6647399 L14.0406977,19.6647399 L14.0406977,7.49132948 C14.0406977,3.35398245 17.3933561,0 21.5290698,0 L66.4593023,0 C70.595016,-3.32681859e-15 73.9476744,3.35398245 73.9476744,7.49132948 L73.9476744,19.6647399 L83.3081395,19.6647399 C86.4099248,19.6647399 88.9244186,22.1802267 88.9244186,25.283237 L88.9244186,39.3294798 Z M59.061878,15.9959428 C59.5477934,14.4248076 59.610577,12.7018812 59.1529757,10.995659 C58.7062748,9.33007996 57.8221556,7.89843175 56.6574067,6.79126225 L48.6761694,13.8680905 L59.061878,15.9959428 Z M31.1462051,16.3157829 L31.1462051,16.3157829 L41.3070116,13.2904961 L32.7396026,6.93648264 C31.675744,8.14099368 30.9197163,9.64428053 30.6198226,11.3424694 C30.3126111,13.0820973 30.5252593,14.7929933 31.1462051,16.3157829 Z" id="Combined-Shape" fill="#BD0FE1"></path>
                    <path d="M35.5170947,52.1821402 C38.0727712,50.6945911 41.0655456,49.8874457 44.2395997,49.9993749 C47.338046,50.1086378 50.203673,51.0794091 52.6144265,52.6734488 L43.4465458,69.5290127 L35.5170947,52.1821402 L35.5170947,52.1821402 Z M35.5170947,83.0838743 C38.0727712,81.5963252 41.0655456,80.7891798 44.2395997,80.901109 C47.338046,81.0103719 50.203673,81.9811432 52.6144265,83.5751829 L43.4465458,100.430747 L35.5170947,83.0838743 L35.5170947,83.0838743 Z M35.5170947,113.985608 C38.0727712,112.498059 41.0655456,111.690914 44.2395997,111.802843 C47.338046,111.912106 50.203673,112.882877 52.6144265,114.476917 L43.4465458,131.332481 L35.5170947,113.985608 L35.5170947,113.985608 Z M35.5170947,144.887342 C38.0727712,143.399793 41.0655456,142.592648 44.2395997,142.704577 C47.338046,142.81384 50.203673,143.784611 52.6144265,145.378651 L43.4465458,162.234215 L35.5170947,144.887342 L35.5170947,144.887342 Z M35.5170947,175.789077 C38.0727712,174.301527 41.0655456,173.494382 44.2395997,173.606311 C47.338046,173.715574 50.203673,174.686346 52.6144265,176.280385 L43.4465458,193.135949 L35.5170947,175.789077 L35.5170947,175.789077 Z M35.5170947,206.690811 C38.0727712,205.203262 41.0655456,204.396116 44.2395997,204.508045 C47.338046,204.617308 50.203673,205.58808 52.6144265,207.182119 L43.4465458,224.037683 L35.5170947,206.690811 L35.5170947,206.690811 Z" id="Combined-Shape" fill="#C8FF16"></path>
                </g>
                <g id="Group-2" transform="translate(447.349570, 250.026534) rotate(90.000000) translate(-447.349570, -250.026534) translate(415.523989, 237.853124)" fill="#000000">
                    <path d="M14.5463856,17.4490068 L27.1801797,9.37417479 L2.1863934,0 C0.457519308,3.63211139 -0.324718343,7.77059048 0.124847027,12.06318 C0.585382625,16.4605167 2.27681932,20.4299502 4.82084829,23.6650398 L5.65173274,23.1339838 C5.29019806,22.2140419 5.04548274,21.2304458 4.93749229,20.1993195 C4.71494986,18.0744154 5.10217067,16.0257986 5.95799246,14.2278423 L14.5463856,17.4490068 Z" id="Eye"></path>
                    <path d="M50.1161531,17.4490068 L62.7499471,9.37417479 L37.7561608,0 C36.0272867,3.63211139 35.2450491,7.77059048 35.6946145,12.06318 C36.1551501,16.4605167 37.8465868,20.4299502 40.3906157,23.6650398 L41.2215002,23.1339838 C40.8599655,22.2140419 40.6152502,21.2304458 40.5072597,20.1993195 C40.2847173,18.0744154 40.6719381,16.0257986 41.5277599,14.2278423 L50.1161531,17.4490068 Z" id="Eye"></path>
                </g>
            </g>
        </g>
    </g>
</svg>